# xmcd CD database file
#
# Track frame offsets:
#	150
#	26875
#	49042
#	92270
#	134540
#
# Disc length: 2280 seconds
#
# Revision: 0
# Processed by: cddbd v1.4PL0 Copyright (c) Steve Scherf et al.
# Submitted via: CDex 1.50beta10
#
DISCID=3a08e605
DTITLE=Kenny Burrell - GOD BLESS THE CHILD
DYEAR=1900
DGENRE=Jazz
TTITLE0=BE YOURSELF
TTITLE1=LOVE IS THE ANSWER
TTITLE2=DO WHAT YOU GOTTA DO
TTITLE3=A CHILD IS BORN
TTITLE4=GOD BLESS THE CHILD
EXTD=
EXTT0=
EXTT1=
EXTT2=
EXTT3=
EXTT4=
PLAYORDER=
